# xmcd CD database file
#
# Track frame offsets:
#	150
#	24600
#	46031
#	70481
#	106481
#	151481
#	184181
#	201223
#	222476
#	240532
#	267982
#	293332
#
# Disc length: 4213 seconds
#
# Revision: 2
# Processed by: cddbd v1.5.2PL0 Copyright (c) Steve Scherf et al.
# Submitted via: CDex 1.70beta2
#
DISCID=ae10730c
DTITLE=Palermo Boogie Gang - Parking Lot Blues
DYEAR=2007
DGENRE=Blues
TTITLE0=I love You Honey
TTITLE1=Mannish Boy
TTITLE2=Everiday I have The Blues
TTITLE3=Thrill Is Gone
TTITLE4=Sweet Little Angel
TTITLE5=Temporary
TTITLE6=Shakey Bully Stomp
TTITLE7=I'm in Love With You Baby
TTITLE8=I'll be back someday
TTITLE9=I missed you Baby
TTITLE10=Stand by Me
TTITLE11=Talk to Your Daughter
EXTD=YEAR: 2007
EXTT0=
EXTT1=
EXTT2=
EXTT3=
EXTT4=
EXTT5=
EXTT6=
EXTT7=
EXTT8=
EXTT9=
EXTT10=
EXTT11=
PLAYORDER=
